<svg id="Capa_1" data-name="Capa 1" xmlns="http://www.w3.org/2000/svg" xmlns:xlink="http://www.w3.org/1999/xlink" viewBox="0 0 368.67 276.67"><defs><style>.cls-1,.cls-7{fill:none;}.cls-2,.cls-8{fill:#108c7d;}.cls-2,.cls-6,.cls-8{stroke:#fff;}.cls-2,.cls-6,.cls-7,.cls-8{stroke-miterlimit:10;}.cls-2{stroke-width:0.73px;}.cls-3{clip-path:url(#clip-path);}.cls-4,.cls-6{fill:#30fde8;}.cls-5{fill:#fff;}.cls-6,.cls-8{stroke-width:2.92px;}.cls-7{stroke:#30fde8;stroke-width:20.01px;}</style><clipPath id="clip-path"><path class="cls-1" d="M177.32,274.33a130,130,0,1,1,130-130,130,130,0,0,1-130,130"/></clipPath></defs><title>Logo1</title><rect class="cls-2" x="6.91" y="183.65" width="340.83" height="86.25" rx="43.13" ry="43.13"/><g class="cls-3"><polygon class="cls-4" points="105.07 241.55 257.7 241.55 284.21 172.67 70.44 174.58 102.17 231.03 105.07 241.55"/><rect class="cls-4" x="39.41" y="172.5" width="275.84" height="3.65"/><path class="cls-5" d="M74.38,170.88l38.92-64.54,34.7-14,29.51-41.51S220,115.09,221,115.42l36,12,26.27,46.7Z"/><path class="cls-4" d="M286.55,174.8,68.1,173.33l43.2-70.88,34.87-13.11L176.66,44.2,226.38,114l31.38,9.25ZM80,166.73,275.12,168l-21.87-39.17-31-9.13L176.81,55.92l-26.3,38.92-34.71,13Z"/><polygon class="cls-4" points="176.46 48.39 184.81 114.64 145 156.11 195.94 131.34 242.14 171.14 280.83 171.42 255.5 126.05 224.33 116.86 176.46 48.39"/></g><path class="cls-4" d="M85.84,241.55h10.8a126.39,126.39,0,1,1,161.37,0H268.8a133.18,133.18,0,0,0,42.1-97.2C310.9,70.7,251,10.77,177.32,10.77S43.75,70.7,43.75,144.35A133.21,133.21,0,0,0,85.84,241.55Z"/><rect class="cls-6" x="6.91" y="173.93" width="340.83" height="86.25" rx="43.13" ry="43.13"/><path class="cls-5" d="M37.68,247.81V187.49H52.76v60.32Z"/><path class="cls-5" d="M60.3,247.81V187.49h45.24v22.62H90.46v-7.54H75.38v30.16H90.46v-7.54h15.08v22.62Z"/><path class="cls-5" d="M113.08,247.81V187.49h45.25v15.08H128.17v7.54h22.62v15.08H128.17v7.54h30.16v15.08Z"/><path class="cls-5" d="M165.87,247.81V187.49h45.24v22.62l-7.54,7.54,7.54,7.54v22.62ZM196,210.11v-7.54H181v7.54Zm0,22.62v-7.54H181v7.54Z"/><path class="cls-5" d="M218.65,247.81V187.49H263.9v60.32Zm30.16-15.08V202.57H233.73v30.16Z"/><path class="cls-5" d="M271.44,247.81V225.19l7.54-7.54-7.54-7.54V187.49h15.08v22.62H301.6V187.49h15.08v22.62l-7.54,7.54,7.54,7.54v22.62H301.6V225.19H286.52v22.62Z"/><path class="cls-7" d="M303.37,185.42a144.93,144.93,0,0,0,3.93-33.66c0-75.88-58.19-137.39-130-137.39s-130,61.51-130,137.39a144.71,144.71,0,0,0,4,34"/><path class="cls-8" d="M308.47,146.74l48.85,32.37a18.51,18.51,0,1,1-27.58,9L310.9,175.65a18.5,18.5,0,1,1-2.43-28.91Z"/><circle class="cls-5" cx="305.43" cy="166.93" r="4.11"/><path class="cls-5" d="M302.19,151a4.11,4.11,0,1,0,4.85,3.21A4.1,4.1,0,0,0,302.19,151Z"/><circle class="cls-5" cx="293.49" cy="169.35" r="4.11"/><path class="cls-5" d="M290.24,153.37a4.12,4.12,0,1,0,4.85,3.22A4.12,4.12,0,0,0,290.24,153.37Z"/><path class="cls-5" d="M342.82,188.16l4.4,2.92,2.91-4.4a3,3,0,0,1,4.92,3.26l-2.91,4.4,4.39,2.91a3,3,0,0,1-3.26,4.92l-4.39-2.91-2.92,4.4A3,3,0,1,1,341,200.4L344,196l-4.39-2.92a3,3,0,0,1,3.26-4.92Z"/></svg>