<svg id="Capa_1" data-name="Capa 1" xmlns="http://www.w3.org/2000/svg" viewBox="0 0 183 66.83"><defs><style>.cls-1{fill:#3eafac;}.cls-2{fill:#30fde8;}.cls-2,.cls-4{stroke:#fff;stroke-miterlimit:10;}.cls-3{fill:#fff;}.cls-4{fill:#108c7d;stroke-width:0.75px;}</style></defs><title>Logo1</title><rect class="cls-1" x="1.63" y="21.2" width="171.51" height="43.4" rx="21.7" ry="21.7"/><rect class="cls-2" x="1.63" y="16.4" width="171.51" height="43.4" rx="21.7" ry="21.7"/><path class="cls-3" d="M17.18,53.58V23.22h7.59V53.58Z"/><path class="cls-3" d="M28.57,53.58V23.22H51.33V34.61H43.74v-3.8H36.15V46h7.59v-3.8h7.59V53.58Z"/><path class="cls-3" d="M55.13,53.58V23.22H77.9v7.59H62.72v3.8H74.1v7.58H62.72V46H77.9v7.59Z"/><path class="cls-3" d="M81.69,53.58V23.22h22.77V34.61l-3.8,3.79,3.8,3.79V53.58Zm15.18-19v-3.8H89.28v3.8Zm0,11.38v-3.8H89.28V46Z"/><path class="cls-3" d="M108.25,53.58V23.22H131V53.58ZM123.43,46V30.81h-7.59V46Z"/><path class="cls-3" d="M134.81,53.58V42.19l3.8-3.79-3.8-3.79V23.22h7.59V34.61H150V23.22h7.59V34.61l-3.79,3.79,3.79,3.79V53.58H150V42.19H142.4V53.58Z"/><path class="cls-4" d="M153.25,2.18l24.87,16.48a9.42,9.42,0,1,1-14,4.6l-9.59-6.36a9.42,9.42,0,1,1-1.24-14.72Z"/><circle class="cls-3" cx="151.7" cy="12.46" r="2.09"/><path class="cls-3" d="M150.05,4.32A2.1,2.1,0,1,0,152.52,6,2.1,2.1,0,0,0,150.05,4.32Z"/><circle class="cls-3" cx="145.62" cy="13.69" r="2.09"/><path class="cls-3" d="M144,5.56a2.09,2.09,0,1,0,2.47,1.63A2.1,2.1,0,0,0,144,5.56Z"/><path class="cls-3" d="M170.74,23.27,173,24.76l1.48-2.24a1.5,1.5,0,0,1,2.08-.43,1.52,1.52,0,0,1,.43,2.09l-1.49,2.24,2.24,1.48a1.5,1.5,0,0,1-1.66,2.51l-2.24-1.49-1.48,2.24a1.5,1.5,0,0,1-2.51-1.66l1.49-2.24-2.24-1.48a1.5,1.5,0,1,1,1.66-2.51Z"/></svg>